<?xml version="1.0" standalone="no"?>
<!DOCTYPE svg PUBLIC "-//W3C//DTD SVG 20010904//EN"
 "http://www.w3.org/TR/2001/REC-SVG-20010904/DTD/svg10.dtd">
<svg version="1.0" xmlns="http://www.w3.org/2000/svg"
 width="300.000000pt" height="350.000000pt" viewBox="0 0 300.000000 350.000000"
 preserveAspectRatio="xMidYMid meet">
<metadata>
Created by potrace 1.10, written by Peter Selinger 2001-2011
</metadata>
<g transform="translate(0.000000,350.000000) scale(0.100000,-0.100000)"
fill="#5f6f65" stroke="none">
<path d="M1694 3229 c-49 -14 -92 -66 -114 -137 -11 -35 -20 -78 -20 -96 0
-17 -3 -41 -6 -53 -6 -22 -7 -22 -37 9 -65 64 -173 94 -244 67 -87 -33 -111
-121 -52 -192 17 -20 29 -37 27 -37 -2 0 -21 7 -43 15 -64 23 -161 19 -220 -9
-57 -26 -85 -61 -92 -115 -7 -50 19 -80 113 -130 85 -46 154 -99 179 -138 19
-28 17 -27 -53 20 -66 44 -142 67 -225 67 -62 0 -83 -5 -135 -31 -100 -50
-151 -129 -131 -204 12 -43 42 -60 141 -80 77 -17 139 -50 159 -86 10 -20 9
-21 -12 -15 -135 42 -202 43 -286 6 -123 -54 -185 -182 -135 -279 25 -50 60
-71 126 -78 l58 -6 -6 -30 c-3 -16 -6 -33 -6 -37 0 -4 -26 -10 -59 -14 -151
-17 -246 -135 -211 -264 12 -46 60 -107 91 -117 18 -6 16 -10 -20 -51 -36 -41
-61 -103 -61 -151 0 -76 69 -170 146 -199 34 -13 43 -21 38 -33 -21 -52 -25
-87 -15 -122 21 -71 86 -126 169 -144 24 -5 32 -12 32 -28 1 -37 35 -101 73
-134 49 -43 97 -57 176 -50 61 5 68 3 97 -23 29 -25 104 -50 149 -50 8 0 22
-14 32 -31 44 -74 169 -120 271 -100 63 13 131 49 160 86 11 14 28 25 38 25
35 0 91 20 128 45 29 20 47 24 103 23 44 0 83 6 110 17 44 18 98 70 113 110 6
16 22 26 57 34 107 27 166 94 167 192 1 58 2 59 34 70 45 15 102 66 118 106
28 65 14 158 -31 219 -15 20 -14 23 18 42 58 33 90 86 95 151 3 39 -1 67 -11
87 -40 77 -132 131 -242 141 -92 8 -63 22 68 32 125 10 159 25 181 81 20 50
20 71 0 118 -19 47 -58 88 -109 115 -60 33 -214 31 -308 -2 -62 -23 -69 -24
-83 -9 -15 15 -13 18 27 44 68 42 123 64 204 79 98 19 133 38 152 82 29 70
-11 167 -87 211 -38 23 -56 27 -120 26 -52 -1 -91 -7 -126 -22 -54 -22 -64
-20 -64 9 0 23 46 58 138 104 98 50 120 90 86 161 -34 71 -161 113 -282 93
-36 -5 -70 -13 -76 -16 -6 -4 15 18 47 48 53 51 57 58 57 101 0 84 -61 128
-177 128 -64 0 -83 -6 -202 -57 -21 -9 -7 27 60 160 36 73 59 131 59 151 0 79
-94 125 -196 95z m90 -85 c22 -8 20 -30 -5 -65 -39 -56 -92 -184 -119 -293
-35 -138 -47 -115 -30 55 17 175 48 289 82 302 19 8 54 8 72 1z m-379 -223
c50 -23 79 -54 103 -111 33 -76 40 -200 11 -200 -5 0 -33 37 -63 83 -29 45
-81 109 -115 142 -59 58 -74 88 -48 98 26 11 74 6 112 -12z m638 -143 c30 -15
19 -36 -51 -91 -67 -54 -107 -95 -148 -151 l-21 -29 -39 26 c-21 14 -51 29
-66 32 -35 9 -35 20 0 76 75 118 233 185 325 137z m-845 -66 c27 -11 71 -34
97 -52 l49 -34 -55 -11 c-30 -6 -71 -20 -90 -31 l-35 -21 -89 52 c-50 28 -91
58 -93 67 -8 43 130 62 216 30z m1057 -183 c47 -12 81 -41 70 -59 -4 -6 -40
-27 -80 -47 -41 -20 -90 -50 -109 -68 l-35 -32 -53 13 c-29 8 -81 14 -115 14
-35 0 -63 3 -63 6 0 3 13 24 30 47 74 104 228 158 355 126z m-663 -10 c65 -14
127 -44 135 -66 7 -19 -16 -40 -105 -95 -33 -21 -77 -60 -98 -88 -21 -27 -41
-50 -44 -50 -4 0 -32 38 -63 83 -31 46 -82 107 -112 136 -57 54 -67 76 -37 84
36 10 273 7 324 -4z m-575 -131 c37 -13 77 -39 111 -72 48 -45 112 -125 112
-140 0 -3 -37 -3 -82 0 -67 5 -96 12 -153 40 -50 25 -99 39 -170 51 -55 8
-104 19 -108 23 -15 13 3 48 35 71 73 53 162 62 255 27z m955 -128 c149 -22
157 -66 23 -133 -27 -14 -78 -48 -113 -76 -35 -28 -67 -51 -71 -51 -5 0 -14
14 -21 31 -17 40 -61 73 -135 100 -85 32 -90 37 -64 65 28 30 102 54 192 64
104 11 115 11 189 0z m499 -109 c56 -57 32 -91 -78 -110 -80 -14 -161 -49
-261 -114 -52 -33 -81 -45 -125 -50 -67 -8 -67 -9 8 85 57 72 139 138 229 183
57 29 79 35 133 35 58 0 68 -3 94 -29z m-1104 -86 c169 -25 223 -43 223 -74 0
-27 -30 -49 -101 -72 -81 -27 -135 -54 -166 -85 l-23 -24 -36 40 c-20 22 -62
56 -95 75 -62 38 -109 86 -109 112 0 9 7 25 17 35 22 25 90 23 290 -7z m-507
-57 c95 -28 214 -140 250 -234 11 -31 19 -58 17 -60 -2 -2 -40 14 -85 36 -134
65 -201 81 -327 81 -61 0 -117 4 -125 9 -21 13 -16 74 10 110 49 69 148 91
260 58z m1248 -241 c8 -40 -114 -148 -230 -203 -37 -17 -37 -17 -100 14 -35
17 -93 42 -129 55 -93 35 -127 54 -140 79 -10 18 -8 24 12 40 21 18 36 19 183
13 117 -4 186 -2 251 9 114 18 149 16 153 -7z m438 -6 c71 -32 96 -94 52 -125
-15 -11 -45 -16 -94 -16 -108 0 -212 -31 -367 -109 l-138 -70 30 52 c105 182
254 286 411 286 43 0 79 -6 106 -18z m-1615 -90 c129 -43 264 -76 354 -87 76
-8 105 -19 105 -39 0 -33 -108 -74 -291 -110 l-85 -17 -102 66 c-61 40 -111
80 -122 99 -31 50 -25 127 9 127 9 0 69 -17 132 -39z m-214 -145 c12 -18 65
-62 120 -98 86 -56 191 -153 179 -165 -2 -2 -26 5 -54 16 -98 39 -215 63 -317
66 -55 2 -108 6 -117 10 -22 9 -51 71 -43 94 19 60 97 110 170 111 34 0 43 -5
62 -34z m1773 -127 c114 -26 162 -109 105 -178 -14 -16 -42 -40 -61 -52 l-35
-21 -68 31 c-112 51 -221 75 -321 68 -47 -3 -94 -9 -105 -13 -18 -7 -19 -6 -5
11 40 49 197 127 305 150 74 16 127 18 185 4z m-599 -29 c30 -17 22 -44 -25
-88 -49 -45 -113 -80 -195 -107 -81 -27 -198 -18 -281 21 -87 41 -143 93 -138
131 3 27 5 28 63 28 33 -1 108 -6 166 -13 110 -13 190 -7 309 23 70 17 77 17
101 5z m-1191 -211 c0 -65 22 -110 76 -158 24 -21 44 -41 44 -44 0 -12 -107
-29 -156 -24 -122 13 -189 109 -137 198 20 34 103 79 145 79 27 0 28 -2 28
-51z m295 6 c105 -38 170 -53 272 -65 50 -5 99 -13 107 -16 64 -24 -77 -120
-205 -139 -172 -26 -453 151 -359 227 31 25 101 23 185 -7z m1436 -80 c69 -35
119 -98 119 -150 0 -15 -14 -40 -33 -62 -29 -31 -41 -37 -90 -41 -39 -3 -76 2
-127 17 l-71 22 26 31 c48 57 69 109 68 170 l-1 56 38 -13 c21 -7 53 -21 71
-30z m-211 5 c25 -25 25 -46 0 -88 -43 -70 -149 -132 -236 -140 -95 -8 -264
66 -312 138 l-24 35 99 8 c104 8 239 29 338 52 84 19 112 18 135 -5z m-1113
-237 c59 -5 62 -7 57 -28 -8 -32 14 -105 43 -143 l24 -33 -48 -21 c-68 -31
-152 -29 -223 4 -62 29 -125 87 -135 125 -16 63 73 118 175 107 25 -3 73 -7
107 -11z m292 -29 c83 -16 179 -15 324 2 56 7 77 -6 77 -46 0 -68 -127 -149
-247 -157 -82 -6 -130 6 -203 49 -84 51 -127 131 -82 157 23 14 32 14 131 -5z
m-662 -42 c-1 -33 6 -61 21 -86 12 -20 22 -39 22 -41 0 -11 -58 19 -82 43 -38
35 -37 73 3 106 17 14 32 26 34 26 1 0 2 -22 2 -48z m1471 -24 c65 -34 61
-112 -9 -171 -93 -81 -242 -77 -353 8 l-35 26 33 43 c17 23 38 56 44 72 12 29
16 30 75 31 34 1 80 8 102 16 41 15 79 8 143 -25z m154 -25 c29 -26 23 -77
-13 -115 -28 -31 -30 -31 -22 -8 4 14 8 51 7 83 0 31 2 57 5 57 2 0 13 -7 23
-17z m-1001 -167 c30 -13 69 -27 87 -31 39 -8 39 -16 7 -71 -29 -49 -107 -94
-164 -94 -74 0 -151 67 -151 130 0 23 5 29 33 34 17 4 52 17 77 31 25 13 48
24 51 24 4 1 31 -10 60 -23z m-406 -27 c28 -10 63 -18 78 -19 26 0 28 -3 25
-32 -4 -44 -42 -58 -100 -38 -45 16 -73 48 -84 94 -6 26 -5 28 12 21 10 -4 42
-16 69 -26z m828 -8 c29 -22 74 -49 100 -60 40 -17 46 -23 38 -38 -50 -94
-213 -111 -299 -30 -26 24 -62 88 -62 110 0 9 20 18 58 26 31 6 64 16 72 21
25 16 39 12 93 -29z m367 -76 c0 -12 -86 -45 -117 -45 -56 0 -28 26 40 37 34
5 65 11 70 11 4 1 7 0 7 -3z m-611 -95 c14 -16 50 -43 80 -59 l53 -29 -46 -17
c-60 -23 -165 -17 -203 11 -37 28 -38 39 -5 53 17 7 42 26 58 42 15 16 30 29
33 29 2 0 16 -13 30 -30z"/>
</g>
</svg>
